<?xml version="1.0" encoding="iso-8859-1"?>
<!-- Generator: Adobe Illustrator 19.0.0, SVG Export Plug-In . SVG Version: 6.00 Build 0)  -->
<svg version="1.1" id="Layer_1" xmlns="http://www.w3.org/2000/svg" xmlns:xlink="http://www.w3.org/1999/xlink" x="0px" y="0px"
	 viewBox="0 0 512.022 512.022" style="enable-background:new 0 0 512.022 512.022;" xml:space="preserve">
<g>
	<g>
		<path d="M423.546,292.186c-43.226-9.976-74.17-48.015-75.138-92.367c-0.685-13.66,1.733-27.299,7.071-39.892
			c0.6-1.483,1.275-2.908,2.021-4.4l0.754-1.558c11.65-27.694,11.569-58.929-0.226-86.561
			c-24.05-56.344-89.223-82.524-145.567-58.473s-82.524,89.223-58.473,145.568l0.513,1.025c0.746,1.492,1.421,2.917,2.092,4.567
			c5.295,12.545,7.688,26.125,7,39.725c-0.965,44.347-31.904,82.383-75.125,92.358c-21.164,4.401-40.584,14.882-55.879,30.158
			c-43.41,43.353-43.456,113.688-0.102,157.098c43.353,43.41,113.688,43.456,157.098,0.102
			c36.736-36.623,96.184-36.597,132.887,0.058c20.926,20.683,49.173,32.265,78.596,32.225
			c52.595-0.018,97.953-36.953,108.625-88.454C522.127,363.352,483.558,304.621,423.546,292.186z M467.445,467.371
			c-36.689,36.743-96.218,36.787-132.962,0.098c-20.779-20.863-49.039-32.547-78.483-32.45
			c-29.418-0.102-57.656,11.561-78.429,32.392c-12.854,12.788-29.135,21.582-46.876,25.322
			c-50.768,10.702-100.6-21.777-111.302-72.545C8.69,369.42,41.169,319.588,91.937,308.886
			c50.877-11.554,87.414-56.177,88.704-108.333c0.808-16.088-2.025-32.151-8.287-46.992c-0.767-1.917-1.625-3.742-2.587-5.667
			l-0.271-0.492c-9.739-23.12-9.819-49.176-0.223-72.355c19.833-47.903,74.744-70.659,122.647-50.826
			c47.903,19.833,70.659,74.744,50.826,122.647l-0.513,1.025c-0.962,1.925-1.821,3.75-2.517,5.5
			c-6.305,14.888-9.163,31.01-8.358,47.158c1.293,52.161,37.835,96.787,88.717,108.342c17.904,3.727,34.332,12.594,47.272,25.515
			C504.09,371.099,504.134,430.628,467.445,467.371z"/>
	</g>
</g>
<g>
	<g>
		<path d="M256,33.952c-42.415,0-76.8,34.385-76.8,76.8s34.385,76.8,76.8,76.8c42.396-0.048,76.752-34.404,76.8-76.8
			C332.8,68.337,298.415,33.952,256,33.952z M256,170.486c-32.99,0-59.733-26.744-59.733-59.733S223.01,51.019,256,51.019
			c32.974,0.038,59.695,26.759,59.733,59.733C315.733,143.742,288.99,170.486,256,170.486z"/>
	</g>
</g>
<g>
	<g>
		<path d="M256,68.086c-23.564,0-42.667,19.103-42.667,42.667s19.102,42.667,42.667,42.667
			c23.553-0.028,42.639-19.114,42.667-42.667C298.666,87.188,279.564,68.086,256,68.086z M256,136.352
			c-14.138,0-25.6-11.461-25.6-25.6s11.461-25.6,25.6-25.6c14.132,0.015,25.585,11.468,25.6,25.6
			C281.6,124.891,270.138,136.352,256,136.352z"/>
	</g>
</g>
<g>
	<g>
		<path d="M256,221.686c-42.415,0-76.8,34.385-76.8,76.8s34.385,76.8,76.8,76.8c42.396-0.048,76.752-34.404,76.8-76.8
			C332.8,256.07,298.415,221.686,256,221.686z M256,358.219c-32.99,0-59.733-26.744-59.733-59.733S223.01,238.752,256,238.752
			c32.974,0.038,59.695,26.759,59.733,59.733C315.733,331.476,288.99,358.219,256,358.219z"/>
	</g>
</g>
<g>
	<g>
		<path d="M256,255.819c-23.553,0.028-42.639,19.114-42.667,42.667c0,0.001,0,0.003,0,0.004c0.001,4.712,3.822,8.53,8.533,8.529
			c0.001,0,0.003,0,0.004,0c4.712-0.001,8.53-3.822,8.529-8.533c0.015-14.132,11.468-25.585,25.6-25.6
			c4.713,0,8.533-3.82,8.533-8.533S260.713,255.819,256,255.819z"/>
	</g>
</g>
<g>
	<g>
		<path d="M110.933,324.086c-42.415,0-76.8,34.385-76.8,76.8s34.385,76.8,76.8,76.8c42.396-0.048,76.752-34.404,76.8-76.8
			C187.733,358.47,153.349,324.086,110.933,324.086z M110.933,460.619c-32.99,0-59.733-26.744-59.733-59.733
			s26.744-59.733,59.733-59.733c32.974,0.038,59.695,26.759,59.733,59.733C170.666,433.876,143.923,460.619,110.933,460.619z"/>
	</g>
</g>
<g>
	<g>
		<path d="M110.933,358.219c-23.564,0-42.667,19.102-42.667,42.667c0,23.564,19.103,42.667,42.667,42.667
			c23.553-0.028,42.639-19.114,42.667-42.667C153.6,377.322,134.497,358.219,110.933,358.219z M110.933,426.486
			c-14.138,0-25.6-11.462-25.6-25.6c0-14.138,11.462-25.6,25.6-25.6c14.132,0.015,25.585,11.468,25.6,25.6
			C136.533,415.024,125.072,426.486,110.933,426.486z"/>
	</g>
</g>
<g>
	<g>
		<path d="M401.066,324.086c-42.415,0-76.8,34.385-76.8,76.8s34.385,76.8,76.8,76.8c42.396-0.048,76.752-34.404,76.8-76.8
			C477.866,358.47,443.482,324.086,401.066,324.086z M401.066,460.619c-32.99,0-59.733-26.744-59.733-59.733
			s26.744-59.733,59.733-59.733c32.974,0.038,59.695,26.759,59.733,59.733C460.8,433.876,434.056,460.619,401.066,460.619z"/>
	</g>
</g>
<g>
	<g>
		<path d="M401.066,358.219c-23.564,0-42.667,19.102-42.667,42.667c0,23.564,19.102,42.667,42.667,42.667
			c23.553-0.028,42.639-19.114,42.667-42.667C443.733,377.322,424.631,358.219,401.066,358.219z M401.066,426.486
			c-14.138,0-25.6-11.462-25.6-25.6c0-14.138,11.462-25.6,25.6-25.6c14.132,0.015,25.585,11.468,25.6,25.6
			C426.666,415.024,415.205,426.486,401.066,426.486z"/>
	</g>
</g>
<g>
</g>
<g>
</g>
<g>
</g>
<g>
</g>
<g>
</g>
<g>
</g>
<g>
</g>
<g>
</g>
<g>
</g>
<g>
</g>
<g>
</g>
<g>
</g>
<g>
</g>
<g>
</g>
<g>
</g>
</svg>
